<?xml version="1.0" standalone="no"?>
<!DOCTYPE svg PUBLIC "-//W3C//DTD SVG 20010904//EN"
 "http://www.w3.org/TR/2001/REC-SVG-20010904/DTD/svg10.dtd">
<svg version="1.0" xmlns="http://www.w3.org/2000/svg"
 width="451.000000pt" height="278.000000pt" viewBox="0 0 451.000000 278.000000"
 preserveAspectRatio="xMidYMid meet">

<g transform="translate(0.000000,278.000000) scale(0.100000,-0.100000)"
fill="#000000" stroke="none">
<path d="M2888 2423 c-15 -4 -13 -9 12 -36 47 -49 85 -135 84 -188 -3 -200
-304 -392 -809 -515 -415 -101 -959 -152 -1487 -142 -120 3 -218 1 -218 -3 0
-4 15 -10 33 -13 381 -57 904 -63 1277 -15 393 50 659 122 895 241 250 126
381 297 345 449 -13 53 -39 107 -70 144 -32 37 -34 48 -11 40 65 -20 217 -132
266 -195 29 -38 31 -39 95 -39 l65 0 -64 58 c-66 62 -166 121 -267 160 -32 13
-68 26 -79 31 -44 17 82 8 150 -11 252 -72 363 -117 469 -193 175 -126 251
-249 250 -406 0 -106 -24 -172 -100 -277 l-16 -23 150 0 150 0 19 48 c13 35
18 73 17 152 0 90 -4 115 -27 175 -111 284 -414 478 -847 544 -84 13 -256 21
-282 14z"/>
<path d="M3276 2053 c3 -27 8 -51 11 -55 2 -5 34 -8 69 -8 l66 0 -7 33 c-17
75 -19 77 -85 77 l-61 0 7 -47z"/>
<path d="M3258 1891 c-9 -22 -13 -42 -10 -45 3 -3 38 -6 78 -6 l73 0 10 38 c6
20 11 40 11 45 0 4 -33 7 -73 7 l-74 0 -15 -39z"/>
<path d="M3150 1744 c-19 -20 -43 -40 -52 -45 -39 -21 -15 -29 87 -29 l104 0
36 46 c19 26 35 51 35 55 0 5 -39 9 -87 9 -87 -1 -88 -1 -123 -36z"/>
<path d="M2891 1570 c-30 -16 -73 -37 -95 -47 l-41 -18 163 -3 163 -2 42 29
c23 17 53 39 67 50 l25 21 -135 -1 c-130 0 -137 -1 -189 -29z"/>
<path d="M2690 1393 c-64 -23 -161 -122 -183 -187 -23 -68 -22 -172 3 -239 25
-68 94 -141 163 -173 41 -19 68 -24 133 -24 70 0 89 4 142 30 69 35 125 92
156 159 31 69 30 198 -4 266 -32 65 -98 130 -163 161 -62 29 -175 32 -247 7z
m199 -93 c30 -16 60 -59 67 -96 3 -19 10 -34 15 -34 15 0 31 -41 23 -58 -10
-21 -11 -30 -13 -65 0 -15 -10 -35 -21 -44 -11 -10 -20 -23 -20 -31 0 -21 -30
-74 -58 -104 -67 -72 -164 -30 -202 85 -6 21 -18 41 -26 44 -8 3 -14 15 -13
27 0 21 0 21 9 -1 5 -13 13 -23 17 -23 5 0 16 -22 26 -49 31 -89 95 -128 157
-96 33 17 66 63 77 105 3 14 13 34 23 45 10 11 20 32 22 46 5 26 5 26 -26 10
-45 -22 -199 -27 -256 -7 -34 12 -46 12 -52 3 -5 -7 -8 2 -9 23 -3 58 1 84 17
96 7 6 14 22 14 35 0 39 49 90 95 99 46 9 107 5 134 -10z"/>
<path d="M2093 1380 c-124 -26 -197 -111 -210 -243 -13 -139 39 -251 141 -301
50 -26 71 -30 140 -30 99 -1 162 21 206 70 34 40 64 104 53 115 -9 7 -114 39
-132 39 -6 0 -13 -11 -17 -25 -18 -73 -129 -101 -184 -47 -46 47 -53 184 -13
253 42 70 150 66 192 -8 8 -16 15 -16 73 -4 34 7 67 16 71 21 12 11 -28 84
-60 110 -60 47 -171 69 -260 50z"/>
<path d="M395 1368 c-3 -8 -4 -135 -3 -283 l3 -270 235 0 235 0 0 60 0 60
-152 3 -153 3 0 54 0 54 138 3 137 3 0 60 0 60 -137 3 -138 3 0 34 0 34 148 3
147 3 0 60 0 60 -228 3 c-178 2 -229 0 -232 -10z"/>
<path d="M975 1369 c-3 -8 -4 -136 -3 -284 l3 -270 165 0 c119 0 175 4 200 14
107 43 150 117 150 257 0 144 -40 227 -129 267 -39 18 -71 22 -213 25 -136 4
-169 2 -173 -9z m294 -134 c41 -21 54 -61 50 -160 -4 -81 -6 -88 -32 -111 -22
-19 -39 -24 -83 -24 l-54 0 0 155 0 155 45 0 c26 0 59 -7 74 -15z"/>
<path d="M1605 1368 c-3 -7 -4 -135 -3 -283 l3 -270 80 0 80 0 0 280 0 280
-78 3 c-57 2 -79 -1 -82 -10z"/>
<path d="M3325 1368 c-3 -7 -4 -135 -3 -283 l3 -270 65 0 65 0 5 210 5 210 18
-65 c10 -36 35 -130 56 -210 l38 -145 63 0 63 0 42 165 c74 289 69 286 75 45
l5 -210 65 0 65 0 0 280 0 280 -112 3 -112 3 -10 -38 c-5 -21 -24 -95 -42
-165 -18 -71 -36 -128 -40 -128 -3 0 -21 55 -38 123 -18 67 -37 140 -44 162
l-12 40 -108 3 c-81 2 -109 -1 -112 -10z"/>
<path d="M740 666 c0 -55 -8 -66 -37 -55 -38 14 -52 11 -84 -20 -24 -24 -29
-38 -29 -76 0 -38 5 -52 29 -76 33 -33 50 -35 91 -14 25 13 29 13 34 -1 4 -10
16 -14 33 -12 l28 3 0 140 0 140 -32 3 c-32 3 -33 2 -33 -32z m-8 -121 c17
-38 0 -80 -32 -80 -18 0 -27 8 -34 27 -13 36 6 78 34 78 12 0 25 -10 32 -25z"/>
<path d="M1135 688 c-3 -8 -4 -72 -3 -144 l3 -129 35 0 35 0 0 140 0 140 -33
3 c-20 2 -34 -2 -37 -10z"/>
<path d="M1405 688 c-3 -8 -4 -72 -3 -144 l3 -129 37 -3 c37 -3 37 -3 40 40 3
38 6 43 28 46 14 1 42 7 62 13 66 18 90 102 44 156 -23 26 -30 28 -115 31 -71
3 -92 1 -96 -10z m149 -73 c10 -26 -5 -45 -35 -45 -31 0 -45 19 -35 45 3 9 18
15 35 15 16 0 31 -6 35 -15z"/>
<path d="M2233 680 c-3 -11 -9 -20 -14 -20 -5 0 -9 -4 -9 -10 0 -18 26 -11 48
13 27 29 28 37 1 37 -12 0 -23 -8 -26 -20z"/>
<path d="M2593 689 c-36 -10 -63 -43 -63 -74 0 -30 37 -61 90 -76 55 -15 70
-26 70 -50 0 -30 -62 -30 -88 0 -13 14 -25 18 -49 14 -40 -6 -40 -13 -8 -51
33 -40 102 -51 163 -26 47 18 62 38 62 82 0 39 -33 67 -103 87 -44 13 -57 21
-55 33 5 24 43 26 65 4 22 -24 86 -19 81 6 -8 43 -100 71 -165 51z"/>
<path d="M3035 690 c-16 -25 -102 -270 -97 -274 3 -4 20 -6 39 -6 27 0 35 5
43 25 9 22 15 25 64 25 49 0 55 -2 58 -22 3 -20 9 -23 43 -23 48 0 49 -9 -12
158 l-46 127 -43 0 c-23 0 -46 -5 -49 -10z m74 -147 c1 -8 -11 -13 -29 -13
-28 0 -30 2 -24 28 4 15 11 36 17 47 9 18 11 17 23 -15 7 -19 13 -41 13 -47z"/>
<path d="M3475 685 c-45 -16 -61 -34 -77 -86 -25 -86 28 -171 113 -184 59 -9
112 13 133 54 15 28 15 31 -3 41 -30 15 -49 12 -61 -10 -13 -25 -71 -27 -90
-4 -8 8 -13 35 -13 59 0 24 5 51 13 59 16 21 79 21 86 1 6 -16 50 -20 71 -7
22 14 -21 69 -64 81 -48 14 -59 13 -108 -4z"/>
<path d="M913 606 c-39 -18 -53 -43 -53 -96 0 -78 78 -119 165 -85 25 9 45 23
45 30 0 14 -58 26 -66 13 -13 -21 -74 -1 -74 24 0 4 34 8 75 8 83 0 97 10 77
55 -24 52 -109 78 -169 51z m95 -53 c2 -9 -9 -13 -37 -13 -39 0 -50 8 -34 24
11 11 66 2 71 -11z"/>
<path d="M1755 611 c-50 -15 -75 -49 -75 -101 0 -66 63 -109 138 -95 40 7 82
30 82 44 0 11 -70 20 -76 9 -10 -16 -53 -8 -64 12 -10 19 -8 20 65 20 60 0 77
3 82 16 9 25 -23 83 -49 88 -53 11 -84 13 -103 7z m70 -51 c18 -20 17 -20 -30
-20 -47 0 -48 0 -30 20 10 11 23 20 30 20 7 0 20 -9 30 -20z"/>
<path d="M1954 607 c-3 -8 -4 -54 -2 -103 l3 -89 35 0 c35 0 35 0 38 50 4 80
10 95 36 95 14 0 27 9 34 24 10 22 8 26 -9 31 -11 4 -30 0 -44 -9 -22 -15 -25
-15 -25 -1 0 19 -58 21 -66 2z"/>
<path d="M2137 614 c-4 -4 -7 -42 -7 -85 0 -57 4 -82 16 -93 24 -25 59 -29 92
-12 27 14 31 14 36 0 4 -10 16 -14 33 -12 l28 3 0 100 0 100 -30 0 c-29 0 -30
-2 -33 -50 -4 -81 -9 -95 -37 -95 -28 0 -33 14 -37 95 -3 45 -5 50 -28 53 -14
2 -29 0 -33 -4z"/>
<path d="M2824 476 c-3 -8 -4 -25 -2 -38 2 -19 9 -23 38 -23 33 0 35 2 35 35
0 32 -3 35 -33 38 -21 2 -34 -2 -38 -12z"/>
<path d="M3270 450 c0 -39 1 -40 35 -40 34 0 35 1 35 40 0 39 -1 40 -35 40
-34 0 -35 -1 -35 -40z"/>
<path d="M3712 453 c3 -36 5 -38 38 -38 33 0 35 2 35 35 0 33 -2 35 -38 38
l-38 3 3 -38z"/>
</g>
</svg>
